<svg width="520" height="1024" viewBox="0 0 520 1024" fill="none" xmlns="http://www.w3.org/2000/svg">
<mask id="mask0_4521_11028" style="mask-type:alpha" maskUnits="userSpaceOnUse" x="0" y="0" width="520" height="1024">
<rect width="520" height="1024" fill="#010C0C"/>
</mask>
<g mask="url(#mask0_4521_11028)">
<g opacity="0.3">
<path d="M647.636 907.189C627.633 888.228 559.739 939.709 536.172 928.491C511.733 916.866 508.717 831.954 482.453 828.672C455.968 825.182 431.096 906.533 404.835 911.439C378.789 916.339 326.476 849.122 302.691 862.04C279.755 874.505 307.42 954.663 288.455 974.67C269.491 994.676 187.969 971.332 176.747 994.901C165.118 1019.34 234.928 1068.1 231.532 1094.26C228.036 1120.75 148.234 1149.82 153.03 1176.19C157.815 1202.13 242.662 1200.72 255.681 1224.39C268.142 1247.32 220.471 1317.98 240.364 1336.83C260.367 1355.79 328.261 1304.31 351.828 1315.53C376.267 1327.15 379.283 1412.07 405.547 1415.35C432.032 1418.84 456.904 1337.49 483.165 1332.58C509.211 1327.68 561.524 1394.9 585.309 1381.98C608.245 1369.52 580.58 1289.36 599.545 1269.35C618.509 1249.34 700.031 1272.69 711.253 1249.12C722.882 1224.68 653.071 1175.92 656.468 1149.76C659.964 1123.27 739.87 1094.09 734.97 1067.83C730.075 1041.79 645.337 1043.31 632.424 1019.52C619.858 996.698 667.639 926.15 647.636 907.189Z" stroke="url(#paint0_linear_4521_11028)" stroke-miterlimit="10"/>
<path d="M629.824 925.98C611.589 908.694 549.713 955.598 528.113 945.405C505.855 934.798 503.04 857.421 479.15 854.291C454.934 851.063 432.352 925.351 408.232 929.768C384.543 934.174 336.697 872.87 314.93 884.765C294.014 896.206 319.337 969.317 302.049 987.555C284.76 1005.79 210.401 984.411 200.093 1005.91C189.483 1028.17 253.145 1072.57 250.017 1096.67C246.784 1120.89 173.919 1147.51 178.436 1171.52C182.838 1195.21 260.255 1193.89 272.035 1215.55C283.472 1236.46 239.837 1300.87 258.071 1318.15C276.306 1335.44 338.182 1288.53 359.783 1298.73C382.041 1309.33 384.856 1386.71 408.746 1389.84C432.962 1393.07 455.544 1318.78 479.664 1314.36C503.353 1309.96 551.199 1371.26 572.965 1359.37C593.882 1347.93 568.559 1274.81 585.847 1256.58C603.135 1238.34 677.495 1259.72 687.802 1238.22C698.412 1215.96 634.75 1171.56 637.879 1147.46C641.112 1123.24 713.977 1096.62 709.459 1072.61C705.058 1048.92 627.641 1050.24 615.86 1028.58C604.423 1007.67 648.059 943.265 629.824 925.98Z" stroke="url(#paint1_linear_4521_11028)" stroke-miterlimit="10"/>
<path d="M611.907 944.88C595.441 929.271 539.478 971.707 519.949 962.428C499.873 952.841 497.363 882.888 475.637 880.131C453.801 877.27 433.287 944.285 411.53 948.423C390.093 952.445 346.928 897.048 327.176 907.704C308.273 917.906 331.149 984.081 315.537 1000.55C299.925 1017.02 232.623 997.711 223.445 1017.13C213.854 1037.21 271.373 1077.46 268.613 1099.19C265.747 1121.03 199.923 1145.09 203.843 1166.85C207.861 1188.29 277.848 1187.06 288.389 1206.71C298.588 1225.61 259.313 1283.86 275.779 1299.47C292.246 1315.08 348.208 1272.64 367.738 1281.92C388.128 1291.18 390.533 1361.24 412.37 1364.1C434.206 1366.97 454.719 1299.95 476.477 1295.81C497.914 1291.79 541.078 1347.19 560.831 1336.53C579.734 1326.33 556.857 1260.15 572.469 1243.68C588.081 1227.22 655.384 1246.52 664.561 1227.1C674.152 1207.03 616.633 1166.77 619.394 1145.04C622.259 1123.21 688.083 1099.14 684.164 1077.38C680.146 1055.94 610.159 1057.17 599.617 1037.53C589.099 1018.74 628.374 960.49 611.907 944.88Z" stroke="url(#paint2_linear_4521_11028)" stroke-miterlimit="10"/>
<path d="M594.094 963.672C579.396 949.739 529.347 987.707 511.888 979.342C493.883 970.668 491.574 908.251 472.333 905.75C452.766 903.151 434.437 963.214 415.141 966.748C395.956 970.386 357.363 920.791 339.845 930.418C322.961 939.596 343.385 998.619 329.345 1013.43C315.409 1028.13 255.275 1011 247.011 1028.35C238.335 1046.36 289.92 1082.25 287.312 1101.6C284.709 1121.17 225.816 1142.57 229.457 1161.97C233.092 1181.15 295.544 1180.12 305.056 1197.53C314.232 1214.42 278.991 1266.42 293.8 1280.46C308.498 1294.39 358.547 1256.42 376.006 1264.79C394.011 1273.46 396.32 1335.88 415.562 1338.38C435.129 1340.98 453.457 1280.92 472.753 1277.38C491.939 1273.75 530.532 1323.34 548.05 1313.71C564.933 1304.54 544.509 1245.51 558.549 1230.7C572.485 1216 632.62 1233.13 640.883 1215.78C649.56 1197.77 597.974 1161.89 600.582 1142.53C603.185 1122.97 662.078 1101.57 658.437 1082.16C654.802 1062.98 592.35 1064.01 582.838 1046.6C573.663 1029.72 608.793 977.605 594.094 963.672Z" stroke="url(#paint3_linear_4521_11028)" stroke-miterlimit="10"/>
<path d="M576.282 982.463C563.352 970.206 519.211 1003.49 503.829 996.255C487.901 988.711 486.002 933.608 469.03 931.37C451.842 929.138 435.693 982.032 418.538 985.077C401.709 988.222 367.693 944.644 352.189 953.032C337.325 961.186 355.302 1013.27 343.043 1026.21C330.784 1039.14 277.811 1023.97 270.462 1039.25C262.915 1055.18 308.247 1086.82 306.006 1103.79C303.771 1120.98 251.815 1139.93 255.073 1157.08C258.214 1173.91 313.346 1173.07 321.725 1188.36C329.877 1203.22 298.782 1249.09 311.822 1261.45C324.752 1273.71 368.894 1240.42 384.275 1247.66C400.204 1255.2 402.103 1310.3 419.075 1312.54C436.262 1314.77 452.412 1261.88 469.566 1258.83C486.395 1255.69 520.411 1299.27 535.915 1290.88C550.779 1282.72 532.802 1230.64 545.061 1217.71C557.32 1204.77 610.293 1219.94 617.642 1204.66C625.189 1188.73 579.857 1157.09 582.098 1140.12C584.333 1122.93 636.289 1103.98 633.032 1086.83C629.89 1070 574.758 1070.84 566.38 1055.55C558.228 1040.69 589.323 994.824 576.282 982.463Z" stroke="url(#paint4_linear_4521_11028)" stroke-miterlimit="10"/>
<path d="M558.365 1001.36C547.093 990.678 508.975 1019.6 495.775 1013.38C482.029 1006.86 480.435 959.179 465.628 957.314C450.709 955.344 436.739 1001.07 421.947 1003.84C407.259 1006.49 377.925 968.823 364.545 976.076C351.59 983.102 367.225 1028.14 356.642 1039.31C345.955 1050.58 300.144 1037.37 293.924 1050.58C287.396 1064.32 326.58 1091.6 324.712 1106.41C322.74 1121.33 277.825 1137.72 280.589 1152.52C283.243 1167.2 330.938 1166.25 338.189 1179.63C345.213 1192.58 318.368 1232.19 329.53 1242.77C340.802 1253.45 378.92 1224.53 392.12 1230.75C405.867 1237.27 407.46 1284.95 422.267 1286.82C437.186 1288.79 451.156 1243.06 465.948 1240.29C480.636 1237.64 509.97 1275.31 523.35 1268.06C536.305 1261.03 520.67 1215.99 531.253 1204.83C541.94 1193.55 587.751 1206.76 593.971 1193.56C600.499 1179.81 561.315 1152.53 563.183 1137.72C565.155 1122.8 610.07 1106.41 607.306 1091.62C604.652 1076.93 556.957 1077.88 549.706 1064.51C542.793 1051.66 569.638 1012.05 558.365 1001.36Z" stroke="url(#paint5_linear_4521_11028)" stroke-miterlimit="10"/>
<path d="M540.552 1020.15C531.048 1011.15 498.844 1035.6 487.715 1030.3C476.15 1024.79 474.647 984.542 462.324 982.934C449.785 981.331 437.993 1019.89 425.558 1022.16C413.123 1024.43 388.359 992.566 377.104 998.685C366.273 1004.58 379.35 1042.58 370.339 1052.08C361.328 1061.59 322.79 1050.45 317.38 1061.69C311.871 1073.26 344.912 1096.39 343.412 1108.82C341.807 1121.36 303.934 1135.19 306.204 1147.63C308.475 1160.06 348.74 1159.2 354.857 1170.45C360.747 1181.28 338.157 1214.85 347.551 1223.76C357.055 1232.77 389.259 1208.31 400.388 1213.61C411.953 1219.12 413.457 1259.37 425.78 1260.98C438.318 1262.58 450.11 1224.02 462.545 1221.75C474.981 1219.48 499.744 1251.35 511 1245.23C521.83 1239.33 508.753 1201.34 517.764 1191.83C526.775 1182.32 565.313 1193.46 570.723 1182.22C576.232 1170.66 543.191 1147.52 544.691 1135.09C546.296 1122.55 584.169 1108.72 581.899 1096.28C579.629 1083.85 539.364 1084.71 533.247 1073.46C527.357 1062.63 550.057 1029.16 540.552 1020.15Z" stroke="url(#paint6_linear_4521_11028)" stroke-miterlimit="10"/>
<path d="M522.635 1039.06C514.899 1031.72 488.714 1051.6 479.551 1047.32C470.167 1042.83 468.97 1010.01 458.811 1008.77C448.542 1007.43 438.929 1038.82 428.745 1040.71C418.667 1042.49 398.48 1016.64 389.349 1021.62C380.538 1026.49 391.273 1057.44 383.938 1065.18C376.604 1072.92 345.123 1063.85 340.732 1072.91C336.242 1082.3 363.245 1101.18 361.897 1111.23C360.555 1121.5 329.723 1132.78 331.61 1142.96C333.387 1153.04 366.227 1152.48 371.21 1161.61C376.077 1170.42 357.523 1197.74 365.259 1205.08C372.995 1212.41 399.18 1192.53 408.343 1196.81C417.727 1201.3 418.924 1234.12 429.083 1235.36C439.352 1236.7 448.965 1205.31 459.149 1203.42C469.227 1201.64 489.414 1227.49 498.545 1222.51C507.356 1217.64 496.621 1186.69 503.956 1178.95C511.29 1171.21 542.771 1180.28 547.162 1171.22C551.652 1161.84 524.649 1142.95 525.997 1132.9C527.339 1122.63 558.171 1111.35 556.284 1101.17C554.507 1091.09 521.667 1091.65 516.684 1082.52C511.922 1073.6 530.371 1046.39 522.635 1039.06Z" stroke="url(#paint7_linear_4521_11028)" stroke-miterlimit="10"/>
<path d="M504.824 1057.85C498.856 1052.19 478.584 1067.6 471.492 1064.23C464.29 1060.76 463.293 1035.48 455.509 1034.39C447.619 1033.42 440.185 1057.64 432.253 1059.15C424.427 1060.54 408.812 1040.49 401.7 1044.45C394.797 1048.19 403.19 1072.1 397.532 1078.07C391.874 1084.04 367.45 1077.04 364.189 1084.02C360.719 1091.23 381.578 1105.96 380.493 1113.75C379.518 1121.64 355.513 1130.36 357.017 1138.29C358.411 1146.12 383.821 1145.65 387.67 1152.66C391.409 1159.56 377.104 1180.63 383.072 1186.29C389.039 1191.94 409.312 1176.53 416.403 1179.9C423.605 1183.37 424.602 1208.66 432.387 1209.74C440.277 1210.71 447.711 1186.49 455.642 1184.99C463.469 1183.59 479.084 1203.64 486.196 1199.68C493.098 1195.94 484.705 1172.03 490.363 1166.06C496.021 1160.1 520.445 1167.09 523.706 1160.11C527.177 1152.9 506.317 1138.17 507.403 1130.38C508.377 1122.49 532.383 1113.77 530.879 1105.84C529.485 1098.01 504.075 1098.48 500.226 1091.47C496.598 1084.67 510.792 1063.5 504.824 1057.85Z" stroke="url(#paint8_linear_4521_11028)" stroke-miterlimit="10"/>
</g>
<mask id="mask1_4521_11028" style="mask-type:alpha" maskUnits="userSpaceOnUse" x="-35" y="-416" width="920" height="1207">
<path d="M415.209 460.561C-186.926 237.301 -183.324 -111.915 424.31 -319.418C1031.94 -526.921 1037.03 -383.438 436.088 0.520098C-164.85 384.478 -168.863 733.947 426.988 780.499C1022.84 827.052 1017.34 683.822 415.209 460.561Z" stroke="#404040" stroke-width="2" stroke-miterlimit="10"/>
<path d="M415.809 440.38C-85.3857 230.289 -81.6885 -88.4175 424.025 -271.127C929.739 -453.837 934.76 -323.335 434.825 20.5438C-65.1099 364.423 -68.807 683.129 426.609 732.051C922.025 780.972 917.257 650.881 415.809 440.38Z" stroke="#404040" stroke-width="2" stroke-miterlimit="10"/>
<path d="M417.071 420.356C7.40464 224.699 10.7857 -63.2455 424.402 -222.678C838.019 -382.111 842.819 -263.927 434.065 41.389C25.3116 346.705 22.3411 634.396 426.734 684.423C831.127 734.451 826.737 616.014 417.071 420.356Z" stroke="#404040" stroke-width="2" stroke-miterlimit="10"/>
<path d="M417.672 400.174C90.5329 219.96 93.3454 -37.6325 424.529 -174.641C755.46 -312.06 759.376 -206.351 433.213 61.1593C107.05 328.67 103.985 585.852 426.356 635.974C748.727 686.096 745.222 580.134 417.672 400.174Z" stroke="#404040" stroke-width="2" stroke-miterlimit="10"/>
<path d="M418.935 380.15C164.911 216.645 167.408 -10.1862 424.908 -126.192C682.407 -242.197 685.597 -149.627 432.613 81.3416C179.629 312.31 176.722 539.393 426.64 587.684C676.559 635.974 672.706 543.246 418.935 380.15Z" stroke="#404040" stroke-width="2" stroke-miterlimit="10"/>
<path d="M419.535 359.969C229.468 214.844 231.648 18.7758 424.623 -77.9008C617.598 -174.577 620.566 -94.3244 431.191 102.029C241.563 297.971 239.383 494.04 426.103 539.899C612.824 585.757 609.603 505.094 419.535 359.969Z" stroke="#404040" stroke-width="2" stroke-miterlimit="10"/>
<path d="M420.548 339.534C284.772 213.643 287.047 48.0838 425.162 -30.1165C563.276 -108.317 565.36 -40.5392 430.341 121.799C295.321 284.137 293.456 449.443 425.727 491.449C557.998 533.454 555.914 465.677 420.548 339.534Z" stroke="#404040" stroke-width="2" stroke-miterlimit="10"/>
<path d="M421.4 319.763C331.167 214.528 332.873 79.3203 424.876 18.175C516.879 -42.9703 518.742 12.4898 429.486 141.571C339.82 270.904 338.525 405.859 426.01 443.159C513.496 480.459 511.633 424.998 421.4 319.763Z" stroke="#404040" stroke-width="2" stroke-miterlimit="10"/>
<path d="M422.41 299.33C368.719 215.76 369.699 111.567 425.002 66.2139C480.557 21.2709 481.946 64.0029 428.475 162.006C375.004 260.009 374.024 364.202 425.884 395.121C477.744 426.041 476.102 382.899 422.41 299.33Z" stroke="#404040" stroke-width="2" stroke-miterlimit="10"/>
<path d="M423.265 279.557C396.293 219.17 397.115 145.075 424.972 114.913C452.828 84.7514 454.155 114.503 427.466 182.438C400.778 250.374 400.114 323.805 425.76 347.082C451.405 370.358 450.237 339.944 423.265 279.557Z" stroke="#404040" stroke-width="2" stroke-miterlimit="10"/>
<path d="M424.276 259.122C415.023 222.928 415.528 179.596 425.509 162.699C435.489 145.802 436.184 163.488 427.024 201.957C417.865 240.425 417.359 283.757 425.792 298.38C434.225 313.003 433.53 295.317 424.276 259.122Z" stroke="#404040" stroke-width="2" stroke-miterlimit="10"/>
</mask>
<g mask="url(#mask1_4521_11028)">
<rect opacity="0.2" x="1452.46" y="762.532" width="1897.99" height="1897.99" transform="rotate(150 1452.46 762.532)" fill="url(#paint9_linear_4521_11028)"/>
</g>
</g>
<defs>
<linearGradient id="paint0_linear_4521_11028" x1="648.668" y1="1316.02" x2="239.332" y2="927.999" gradientUnits="userSpaceOnUse">
<stop stop-color="#FF6443"/>
<stop offset="1" stop-color="#FE9F11" stop-opacity="0"/>
</linearGradient>
<linearGradient id="paint1_linear_4521_11028" x1="630.779" y1="1299.17" x2="257.117" y2="944.962" gradientUnits="userSpaceOnUse">
<stop stop-color="#FF6443"/>
<stop offset="1" stop-color="#FE9F11" stop-opacity="0"/>
</linearGradient>
<linearGradient id="paint2_linear_4521_11028" x1="612.853" y1="1282.39" x2="274.944" y2="962.07" gradientUnits="userSpaceOnUse">
<stop stop-color="#FF6443"/>
<stop offset="1" stop-color="#FE9F11" stop-opacity="0"/>
</linearGradient>
<linearGradient id="paint3_linear_4521_11028" x1="594.789" y1="1265.05" x2="293.105" y2="979.077" gradientUnits="userSpaceOnUse">
<stop stop-color="#FF6443"/>
<stop offset="1" stop-color="#FE9F11" stop-opacity="0"/>
</linearGradient>
<linearGradient id="paint4_linear_4521_11028" x1="577.057" y1="1248.04" x2="311.047" y2="995.876" gradientUnits="userSpaceOnUse">
<stop stop-color="#FF6443"/>
<stop offset="1" stop-color="#FE9F11" stop-opacity="0"/>
</linearGradient>
<linearGradient id="paint5_linear_4521_11028" x1="558.911" y1="1231.04" x2="328.984" y2="1013.09" gradientUnits="userSpaceOnUse">
<stop stop-color="#FF6443"/>
<stop offset="1" stop-color="#FE9F11" stop-opacity="0"/>
</linearGradient>
<linearGradient id="paint6_linear_4521_11028" x1="541.068" y1="1213.92" x2="347.036" y2="1029.99" gradientUnits="userSpaceOnUse">
<stop stop-color="#FF6443"/>
<stop offset="1" stop-color="#FE9F11" stop-opacity="0"/>
</linearGradient>
<linearGradient id="paint7_linear_4521_11028" x1="523.016" y1="1197.02" x2="364.878" y2="1047.11" gradientUnits="userSpaceOnUse">
<stop stop-color="#FF6443"/>
<stop offset="1" stop-color="#FE9F11" stop-opacity="0"/>
</linearGradient>
<linearGradient id="paint8_linear_4521_11028" x1="505.085" y1="1180.02" x2="382.811" y2="1064.11" gradientUnits="userSpaceOnUse">
<stop stop-color="#FF6443"/>
<stop offset="1" stop-color="#FE9F11" stop-opacity="0"/>
</linearGradient>
<linearGradient id="paint9_linear_4521_11028" x1="3058.2" y1="2807.09" x2="2065.34" y2="1678.6" gradientUnits="userSpaceOnUse">
<stop stop-color="#00EEFD"/>
<stop offset="1" stop-color="#51FD00" stop-opacity="0"/>
</linearGradient>
</defs>
</svg>
