<svg width="28" height="24" viewBox="0 0 28 24" fill="none" xmlns="http://www.w3.org/2000/svg">
<path fill-rule="evenodd" clip-rule="evenodd" d="M21.9993 17.9995C21.4797 18.9081 20.8508 19.7394 20.1128 20.4934C19.0439 21.5863 17.7942 22.444 16.3638 23.0664C14.949 23.6888 13.4243 24 11.7895 24C9.62021 24 7.63957 23.4611 5.84757 22.3833C4.07129 21.3055 2.64871 19.8634 1.57979 18.0569C0.526601 16.2353 0 14.2239 0 12.0228C0 10.3529 0.306525 8.79696 0.919578 7.35484C1.53263 5.89753 2.37361 4.62239 3.44252 3.52941C4.52715 2.42125 5.78471 1.55598 7.21516 0.933585C8.64562 0.311195 10.1704 0 11.7895 0C12.7576 0 13.6865 0.107331 14.5764 0.321991C13.2609 1.7509 12.3335 3.55449 11.9655 5.55853C11.9071 5.55683 11.8484 5.55598 11.7895 5.55598C10.6577 5.55598 9.63593 5.85199 8.72421 6.44402C7.81249 7.03605 7.0894 7.82542 6.55495 8.81214C6.02049 9.79886 5.75326 10.8691 5.75326 12.0228C5.75326 13.222 6.02836 14.3074 6.57853 15.2789C7.12871 16.2505 7.85965 17.0247 8.77137 17.6015C9.6988 18.1632 10.7048 18.444 11.7895 18.444C12.937 18.444 13.9666 18.148 14.8783 17.556C15.4489 17.1855 15.9425 16.7407 16.3591 16.2215C17.974 17.326 19.9125 17.9781 21.9993 17.9995Z" fill="#2D3539"/>
<ellipse cx="22.1052" cy="7.5" rx="5.89474" ry="6" fill="url(#paint0_linear_2136_6370)"/>
<defs>
<linearGradient id="paint0_linear_2136_6370" x1="16.2105" y1="1.5" x2="28.2086" y2="13.2876" gradientUnits="userSpaceOnUse">
<stop stop-color="#FF5F3C"/>
<stop offset="1" stop-color="#FFA5A0"/>
</linearGradient>
</defs>
</svg>
